<?xml version="1.0" encoding="UTF-8"?>
<svg width="100px" height="100px" viewBox="0 0 100 100" xmlns="http://www.w3.org/2000/svg">
  <g fill="#FFFFFF">
    <path d="M50,20 C55.5228475,20 60,15.5228475 60,10 C60,4.4771525 55.5228475,0 50,0 C44.4771525,0 40,4.4771525 40,10 C40,15.5228475 44.4771525,20 50,20 Z"/>
    <rect x="30" y="30" width="40" height="50" rx="5"/>
    <rect x="20" y="40" width="10" height="25" rx="2"/>
    <rect x="70" y="40" width="10" height="25" rx="2"/>
    <rect x="40" y="80" width="7" height="20" rx="2"/>
    <rect x="53" y="80" width="7" height="20" rx="2"/>
    <circle cx="40" cy="45" r="5"/>
    <circle cx="60" cy="45" r="5"/>
    <path d="M43,60 L57,60 C58.1045695,60 59,60.8954305 59,62 C59,63.1045695 58.1045695,64 57,64 L43,64 C41.8954305,64 41,63.1045695 41,62 C41,60.8954305 41.8954305,60 43,60 Z"/>
  </g>
</svg>